<svg xmlns="http://www.w3.org/2000/svg" version="1.1" xmlns:xlink="http://www.w3.org/1999/xlink" viewBox="0 0 200 200"><rect width="200" height="200" fill="url('#gradient')"></rect><defs><linearGradient id="gradient" gradientTransform="rotate(45 0.5 0.5)"><stop offset="0%" stop-color="#ffffff"></stop><stop offset="100%" stop-color="#ffffff"></stop></linearGradient></defs><g><g fill="#181818" transform="matrix(2.9581126624939817,0,0,2.9581126624939817,6.830219648466354,121.03643817056758)" stroke="#000000" stroke-width="0"><path d="M12.95-14.22L12.95 0L9.54 0L4.50-8.85L4.50 0L1.07 0L1.07-14.22L4.50-14.22L9.53-5.37L9.53-14.22L12.95-14.22ZM23.21-4.81L26.62-4.81Q26.55-3.33 25.82-2.19Q25.09-1.05 23.76-0.43Q22.44 0.20 20.74 0.20L20.74 0.20Q17.94 0.20 16.33-1.63Q14.72-3.46 14.72-6.79L14.72-6.79L14.72-7.49Q14.72-9.58 15.44-11.15Q16.17-12.71 17.54-13.57Q18.91-14.42 20.70-14.42L20.70-14.42Q23.29-14.42 24.86-13.06Q26.44-11.70 26.65-9.31L26.65-9.31L23.23-9.31Q23.19-10.61 22.58-11.17Q21.96-11.74 20.70-11.74L20.70-11.74Q19.42-11.74 18.83-10.78Q18.23-9.82 18.20-7.72L18.20-7.72L18.20-6.72Q18.20-4.44 18.77-3.47Q19.35-2.49 20.74-2.49L20.74-2.49Q21.92-2.49 22.55-3.05Q23.17-3.60 23.21-4.81L23.21-4.81ZM31.67-14.22L31.67-2.64L37.64-2.64L37.64 0L28.24 0L28.24-14.22L31.67-14.22ZM47.90-8.57L47.90-6.03L42.51-6.03L42.51-2.64L48.88-2.64L48.88 0L39.08 0L39.08-14.22L48.90-14.22L48.90-11.57L42.51-11.57L42.51-8.57L47.90-8.57ZM53.25-14.22L55.58-9.49L57.90-14.22L61.82-14.22L57.84-7.17L61.92 0L57.97 0L55.58-4.81L53.18 0L49.24 0L53.31-7.17L49.35-14.22L53.25-14.22Z"></path></g></g></svg>